<svg width="512" height="512" viewBox="0 0 512 512" fill="none" xmlns="http://www.w3.org/2000/svg">
<rect width="512" height="512" fill="white"/>
<path d="M91.6881 140V224H106.088V140H91.6881ZM118.808 224C127.368 224 134.888 222.28 141.368 218.84C147.848 215.32 152.888 210.44 156.488 204.2C160.168 197.88 162.008 190.48 162.008 182C162.008 173.52 160.168 166.16 156.488 159.92C152.888 153.6 147.848 148.72 141.368 145.28C134.888 141.76 127.368 140 118.808 140H100.448V153.32H118.448C122.608 153.32 126.448 153.92 129.968 155.12C133.488 156.32 136.528 158.12 139.088 160.52C141.728 162.92 143.768 165.92 145.208 169.52C146.728 173.12 147.488 177.28 147.488 182C147.488 186.72 146.728 190.88 145.208 194.48C143.768 198.08 141.728 201.08 139.088 203.48C136.528 205.88 133.488 207.68 129.968 208.88C126.448 210.08 122.608 210.68 118.448 210.68H100.448V224H118.808ZM187.589 168.8H174.749V224H187.589V168.8ZM204.029 182.6L210.269 171.68C209.069 170.16 207.589 169.12 205.829 168.56C204.069 167.92 202.189 167.6 200.189 167.6C197.389 167.6 194.669 168.6 192.029 170.6C189.469 172.6 187.349 175.32 185.669 178.76C184.069 182.12 183.269 186 183.269 190.4L187.589 192.92C187.589 190.28 187.869 188 188.429 186.08C189.069 184.08 190.069 182.52 191.429 181.4C192.789 180.28 194.549 179.72 196.709 179.72C198.309 179.72 199.629 179.96 200.669 180.44C201.709 180.92 202.829 181.64 204.029 182.6ZM241.405 225.2C247.805 225.2 253.285 223.96 257.845 221.48C262.405 219 266.125 215.28 269.005 210.32L257.845 205.76C256.085 208.72 253.885 210.92 251.245 212.36C248.605 213.8 245.525 214.52 242.005 214.52C238.645 214.52 235.765 213.8 233.365 212.36C231.045 210.92 229.285 208.84 228.085 206.12C226.885 203.32 226.285 199.92 226.285 195.92C226.365 191.92 227.005 188.56 228.205 185.84C229.405 183.12 231.165 181.04 233.485 179.6C235.805 178.16 238.605 177.44 241.885 177.44C244.605 177.44 246.965 178.04 248.965 179.24C251.045 180.44 252.645 182.12 253.765 184.28C254.965 186.44 255.565 189 255.565 191.96C255.565 192.52 255.405 193.24 255.085 194.12C254.845 194.92 254.605 195.56 254.365 196.04L258.325 190.52H220.885V199.4H269.365C269.445 199.08 269.485 198.56 269.485 197.84C269.565 197.12 269.605 196.44 269.605 195.8C269.605 189.88 268.485 184.84 266.245 180.68C264.085 176.44 260.965 173.2 256.885 170.96C252.805 168.72 247.845 167.6 242.005 167.6C236.165 167.6 231.085 168.8 226.765 171.2C222.445 173.52 219.085 176.84 216.685 181.16C214.365 185.48 213.205 190.56 213.205 196.4C213.205 202.16 214.365 207.2 216.685 211.52C219.005 215.84 222.285 219.2 226.525 221.6C230.845 224 235.805 225.2 241.405 225.2ZM290.135 206.84C290.135 205.08 290.535 203.6 291.335 202.4C292.215 201.2 293.495 200.28 295.175 199.64C296.855 198.92 299.055 198.56 301.775 198.56C304.895 198.56 307.855 198.96 310.655 199.76C313.455 200.56 316.095 201.84 318.575 203.6V197C317.855 196.12 316.615 195.16 314.855 194.12C313.095 193 310.855 192.04 308.135 191.24C305.495 190.44 302.335 190.04 298.655 190.04C291.775 190.04 286.455 191.64 282.695 194.84C278.935 197.96 277.055 202.2 277.055 207.56C277.055 211.32 277.935 214.52 279.695 217.16C281.455 219.8 283.815 221.8 286.775 223.16C289.735 224.52 292.935 225.2 296.375 225.2C299.575 225.2 302.695 224.64 305.735 223.52C308.855 222.32 311.415 220.56 313.415 218.24C315.495 215.84 316.535 212.88 316.535 209.36L314.615 202.16C314.615 204.88 313.935 207.28 312.575 209.36C311.295 211.36 309.575 212.88 307.415 213.92C305.335 214.96 303.015 215.48 300.455 215.48C298.455 215.48 296.655 215.16 295.055 214.52C293.535 213.88 292.335 212.92 291.455 211.64C290.575 210.28 290.135 208.68 290.135 206.84ZM286.055 183.2C286.855 182.64 288.055 181.96 289.655 181.16C291.335 180.28 293.295 179.56 295.535 179C297.855 178.36 300.295 178.04 302.855 178.04C304.535 178.04 306.095 178.2 307.535 178.52C308.975 178.84 310.215 179.36 311.255 180.08C312.295 180.8 313.095 181.72 313.655 182.84C314.295 183.96 314.615 185.4 314.615 187.16V224H327.335V184.64C327.335 180.96 326.335 177.88 324.335 175.4C322.335 172.84 319.575 170.88 316.055 169.52C312.615 168.16 308.615 167.48 304.055 167.48C298.935 167.48 294.375 168.2 290.375 169.64C286.455 171.08 283.255 172.56 280.775 174.08L286.055 183.2ZM421.404 188.96C421.404 184.4 420.764 180.52 419.484 177.32C418.204 174.12 416.244 171.72 413.604 170.12C411.044 168.44 407.804 167.6 403.884 167.6C400.124 167.6 396.764 168.44 393.804 170.12C390.924 171.8 388.524 174.24 386.604 177.44C385.404 174.24 383.444 171.8 380.724 170.12C378.084 168.44 374.724 167.6 370.644 167.6C367.124 167.6 364.044 168.4 361.404 170C358.844 171.52 356.764 173.8 355.164 176.84V168.8H342.444V224H355.164V190.4C355.164 187.76 355.604 185.52 356.484 183.68C357.364 181.84 358.604 180.44 360.204 179.48C361.884 178.52 363.844 178.04 366.084 178.04C369.284 178.04 371.604 179.08 373.044 181.16C374.564 183.16 375.324 186.24 375.324 190.4V224H388.284V190.4C388.284 187.76 388.724 185.52 389.604 183.68C390.564 181.84 391.844 180.44 393.444 179.48C395.124 178.52 397.044 178.04 399.204 178.04C402.404 178.04 404.724 179.08 406.164 181.16C407.684 183.16 408.444 186.24 408.444 190.4V224H421.404V188.96Z" fill="#373EF1"/>
<path d="M69.4225 284V368H83.9425V284H69.4225ZM115.143 284L79.6225 323.72L116.583 368H133.983L96.7825 323.36L132.183 284H115.143ZM142.159 290.84C142.159 293 142.959 294.88 144.559 296.48C146.239 298 148.159 298.76 150.319 298.76C152.639 298.76 154.559 298 156.079 296.48C157.679 294.88 158.479 293 158.479 290.84C158.479 288.6 157.679 286.72 156.079 285.2C154.559 283.68 152.639 282.92 150.319 282.92C148.159 282.92 146.239 283.68 144.559 285.2C142.959 286.72 142.159 288.6 142.159 290.84ZM143.959 312.8V368H156.679V312.8H143.959ZM166.834 312.8V324.2H198.154V312.8H166.834ZM176.074 293.6V368H188.914V293.6H176.074ZM215.733 340.4C215.733 336.96 216.493 333.92 218.013 331.28C219.533 328.64 221.573 326.56 224.133 325.04C226.773 323.52 229.693 322.76 232.893 322.76C235.453 322.76 237.933 323.16 240.333 323.96C242.733 324.76 244.853 325.88 246.693 327.32C248.613 328.68 250.013 330.28 250.893 332.12V317.84C248.973 315.92 246.373 314.4 243.093 313.28C239.813 312.16 236.213 311.6 232.293 311.6C226.613 311.6 221.493 312.84 216.933 315.32C212.453 317.72 208.893 321.08 206.253 325.4C203.693 329.72 202.413 334.72 202.413 340.4C202.413 346 203.693 351 206.253 355.4C208.893 359.72 212.453 363.12 216.933 365.6C221.493 368 226.613 369.2 232.293 369.2C236.213 369.2 239.813 368.64 243.093 367.52C246.373 366.4 248.973 364.88 250.893 362.96V348.68C250.013 350.44 248.653 352.04 246.813 353.48C244.973 354.92 242.853 356.04 240.453 356.84C238.053 357.64 235.533 358.04 232.893 358.04C229.693 358.04 226.773 357.28 224.133 355.76C221.573 354.24 219.533 352.2 218.013 349.64C216.493 347 215.733 343.92 215.733 340.4ZM278.178 274.4H265.218V368H278.178V274.4ZM300.738 334.4V368H313.818V332.6C313.818 327.88 313.098 323.96 311.658 320.84C310.218 317.64 308.058 315.24 305.178 313.64C302.378 312.04 298.938 311.24 294.858 311.24C290.698 311.24 287.138 312.28 284.178 314.36C281.298 316.44 279.058 319.2 277.458 322.64C275.858 326.08 275.058 330 275.058 334.4H278.178C278.178 331.92 278.698 329.76 279.738 327.92C280.778 326.08 282.218 324.64 284.058 323.6C285.898 322.56 288.018 322.04 290.418 322.04C294.018 322.04 296.618 323.08 298.218 325.16C299.898 327.24 300.738 330.32 300.738 334.4ZM354.257 369.2C360.657 369.2 366.137 367.96 370.697 365.48C375.257 363 378.977 359.28 381.857 354.32L370.697 349.76C368.937 352.72 366.737 354.92 364.097 356.36C361.457 357.8 358.377 358.52 354.857 358.52C351.497 358.52 348.617 357.8 346.217 356.36C343.897 354.92 342.137 352.84 340.937 350.12C339.737 347.32 339.137 343.92 339.137 339.92C339.217 335.92 339.857 332.56 341.057 329.84C342.257 327.12 344.017 325.04 346.337 323.6C348.657 322.16 351.457 321.44 354.737 321.44C357.457 321.44 359.817 322.04 361.817 323.24C363.897 324.44 365.497 326.12 366.617 328.28C367.817 330.44 368.417 333 368.417 335.96C368.417 336.52 368.257 337.24 367.937 338.12C367.697 338.92 367.457 339.56 367.217 340.04L371.177 334.52H333.737V343.4H382.217C382.297 343.08 382.337 342.56 382.337 341.84C382.417 341.12 382.457 340.44 382.457 339.8C382.457 333.88 381.337 328.84 379.097 324.68C376.937 320.44 373.817 317.2 369.737 314.96C365.657 312.72 360.697 311.6 354.857 311.6C349.017 311.6 343.937 312.8 339.617 315.2C335.297 317.52 331.937 320.84 329.537 325.16C327.217 329.48 326.057 334.56 326.057 340.4C326.057 346.16 327.217 351.2 329.537 355.52C331.857 359.84 335.137 363.2 339.377 365.6C343.697 368 348.657 369.2 354.257 369.2ZM430.347 334.4V368H443.667V332.96C443.667 326.32 442.027 321.12 438.747 317.36C435.467 313.52 430.707 311.6 424.467 311.6C420.627 311.6 417.307 312.4 414.507 314C411.787 315.6 409.547 318.04 407.787 321.32V312.8H394.827V368H407.787V334.4C407.787 331.92 408.307 329.76 409.347 327.92C410.387 326 411.827 324.56 413.667 323.6C415.507 322.56 417.627 322.04 420.027 322.04C423.547 322.04 426.147 323.08 427.827 325.16C429.507 327.24 430.347 330.32 430.347 334.4Z" fill="#111111"/>
</svg>
