<svg width="32" height="32" viewBox="0 0 32 32" fill="none" xmlns="http://www.w3.org/2000/svg">
<path d="M13.5 12.76C9.57416 12.5706 7.58423 13.9702 6.05237 16.959C3.75459 21.442 5.65363 28.7777 13.3194 28.7777C20.985 28.7777 21.2068 21.3703 21.2068 20.5943C21.2068 20.0769 21.2068 17.1843 21.2068 11.9164C22.8464 12.9549 24.2288 13.58 25.354 13.7918C26.4792 14.0036 27.1945 14.0974 27.4999 14.0734V9.75616C26.4592 9.6307 25.5592 9.39156 24.7999 9.03876C23.661 8.50949 21.4026 7.04076 21.4026 4.88805C21.4042 4.89858 21.4042 4.34329 21.4026 3.22217H16.6572C16.6432 13.7662 16.6432 19.5569 16.6572 20.5943C16.6784 22.1503 15.4713 24.327 13.0238 24.327C10.5763 24.327 9.36916 22.1521 9.36916 20.7492C9.36916 19.8904 9.66409 18.6456 10.8835 17.7238C11.6066 17.1772 11.8714 16.959 13.5 16.959C13.5 16.4552 13.5 15.0556 13.5 12.76Z" stroke="#373EF1" stroke-width="2" stroke-linejoin="round"/>
</svg>
