<svg width="25" height="24" viewBox="0 0 25 24" fill="none" xmlns="http://www.w3.org/2000/svg">
<path d="M23.1909 11.4172L20.8737 12.5759L17.8737 6.83067L20.2145 5.66024C20.3904 5.5723 20.5938 5.55695 20.7808 5.61749C20.9679 5.67802 21.1237 5.80961 21.2148 5.9839L23.5203 10.3992C23.5664 10.4875 23.5945 10.5841 23.6029 10.6834C23.6112 10.7826 23.5998 10.8825 23.5691 10.9773C23.5384 11.0721 23.4892 11.1598 23.4243 11.2353C23.3593 11.3108 23.28 11.3727 23.1909 11.4172V11.4172Z" stroke="#373EF1" stroke-width="1.5" stroke-linecap="round" stroke-linejoin="round"/>
<path d="M4.37365 12.4755L2.05637 11.3169C1.96729 11.2723 1.88797 11.2105 1.82304 11.135C1.75811 11.0594 1.70888 10.9717 1.67821 10.877C1.64755 10.7822 1.63607 10.6823 1.64444 10.583C1.65281 10.4838 1.68086 10.3872 1.72697 10.2989L4.03255 5.88357C4.12356 5.70927 4.27939 5.57768 4.46646 5.51714C4.65354 5.45661 4.85691 5.47196 5.03278 5.55989L7.37365 6.73033L4.37365 12.4755Z" stroke="#373EF1" stroke-width="1.5" stroke-linecap="round" stroke-linejoin="round"/>
<path d="M20.8737 12.5761L19.3737 14.3309L15.9239 17.7806C15.8323 17.8722 15.7186 17.9385 15.5938 17.9731C15.469 18.0076 15.3373 18.0093 15.2117 17.9779L9.77823 16.6195C9.67632 16.594 9.5809 16.5474 9.49814 16.4827L4.37366 12.4756" stroke="#373EF1" stroke-width="1.5" stroke-linecap="round" stroke-linejoin="round"/>
<path d="M19.3736 14.3308L15.2486 11.3308L14.0486 12.2308C13.5293 12.6203 12.8977 12.8308 12.2486 12.8308C11.5995 12.8308 10.9679 12.6203 10.4486 12.2308L9.94044 11.8497C9.85448 11.7852 9.78337 11.703 9.73194 11.6087C9.68051 11.5143 9.64995 11.41 9.64233 11.3028C9.63471 11.1956 9.65021 11.0881 9.68779 10.9874C9.72536 10.8867 9.78413 10.7953 9.86011 10.7193L13.529 7.05048C13.5986 6.98084 13.6813 6.92559 13.7723 6.8879C13.8633 6.85021 13.9608 6.83081 14.0593 6.83081H17.8736" stroke="#373EF1" stroke-width="1.5" stroke-linecap="round" stroke-linejoin="round"/>
<path d="M7.42749 6.73022L12.2387 5.32758C12.4106 5.27748 12.5947 5.2905 12.7578 5.3643L15.9986 6.83071" stroke="#373EF1" stroke-width="1.5" stroke-linecap="round" stroke-linejoin="round"/>
<path d="M11.1237 19.9558L8.29808 19.2494C8.18342 19.2207 8.07716 19.1654 7.98796 19.0878L5.87366 17.25" stroke="#373EF1" stroke-width="1.5" stroke-linecap="round" stroke-linejoin="round"/>
</svg>
